<?xml version="1.0" encoding="utf-8"?>
<!-- Generator: Adobe Illustrator 22.1.0, SVG Export Plug-In . SVG Version: 6.00 Build 0)  -->
<svg version="1.1" id="Art" xmlns="http://www.w3.org/2000/svg" xmlns:xlink="http://www.w3.org/1999/xlink" x="0px" y="0px"
	 viewBox="0 0 81.7 94.2" style="enable-background:new 0 0 81.7 94.2;" xml:space="preserve">
<style type="text/css">
	.st0{fill:#009639;}
	.st1{fill:#FFFFFF;}
	.st2{fill:#999999;}
</style>
<title>NGINX-vertical-white-type-RGB</title>
<g>
	<path class="st0" d="M11.5,44.8c0.3,0.5,0.7,0.9,1.1,1.1l23.2,13.4l0,0c1,0.6,2.1,0.6,3.1,0l23.2-13.4c1-0.5,1.5-1.6,1.5-2.7V16.5
		l0,0c0-1.1-0.6-2.1-1.5-2.7L38.9,0.4v0c-1-0.6-2.1-0.6-3.1,0v0L12.7,13.8c-1,0.5-1.6,1.6-1.5,2.7l0,0v26.8
		C11.1,43.8,11.2,44.4,11.5,44.8"/>
	<path class="st1" d="M30,40.1c0,1.6-1.3,3-3,3c-1.6,0-3-1.3-3-3c0,0,0,0,0,0l0,0l0-20.5c0.1-1.7,1.6-3,3.3-2.9c0,0,0.1,0,0.1,0
		c1.6,0,3,0.6,4.1,1.8l0.9,1.1l12.5,14.9V19.7h0c0-1.6,1.3-3,3-3c1.6,0,3,1.3,3,3c0,0,0,0,0,0h0l0,20.5c-0.1,1.7-1.6,3-3.3,2.9
		c0,0-0.1,0-0.1,0c-1.6,0-3-0.6-4.1-1.8L30,25.2L30,40.1L30,40.1z"/>
</g>
<polygon class="st1" points="74.8,73.6 70.9,73.6 66.5,80.4 62.3,73.6 58.2,73.6 64.3,83.5 58.2,93.8 62,93.8 66.3,86.8 70.6,93.8 
	74.6,93.8 68.5,83.7 "/>
<polygon class="st1" points="53.1,73.6 53.1,87.3 45.2,73.6 41.9,73.6 41.9,93.8 45.2,93.8 45.2,80.1 53.1,93.8 56.4,93.8 
	56.4,73.6 "/>
<rect x="35.7" y="73.6" class="st1" width="3.5" height="20.2"/>
<path class="st1" d="M33,80.8v-1.1c0-3.9-2.9-6.4-7.9-6.4c-5,0-7.9,2.5-7.9,6.4v8.1c0,3.9,2.9,6.4,7.9,6.4s7.9-2.5,7.9-6.4V83h-8
	v3.2h4.5v1.3c0,2.1-1.6,3.4-4.4,3.4c-2.8,0-4.4-1.3-4.4-3.4v-7.7c0-2.1,1.6-3.4,4.4-3.4c2.8,0,4.4,1.3,4.4,3.4v0.9H33z"/>
<polygon class="st1" points="11.2,73.6 11.2,87.3 3.3,73.6 0,73.6 0,93.8 3.3,93.8 3.3,80.1 11.2,93.8 14.5,93.8 14.5,73.6 "/>
<path class="st2" d="M78.9,92.8h0.4V92h0.3c0.1,0,0.3,0,0.4,0.1c0.2,0.1,0.2,0.3,0.2,0.5v0.2l0,0.1c0,0,0,0,0,0c0,0,0,0,0,0h0.4l0,0
	c0,0,0-0.1,0-0.1c0-0.1,0-0.1,0-0.2v-0.2c0-0.1,0-0.2-0.1-0.3c-0.1-0.1-0.2-0.2-0.4-0.2c0.1,0,0.2,0,0.3-0.1
	c0.1-0.1,0.2-0.3,0.2-0.4c0-0.2-0.1-0.5-0.3-0.5c-0.2-0.1-0.4-0.1-0.6-0.1h-0.8L78.9,92.8z M80,91.7c-0.1,0-0.2,0.1-0.4,0h-0.3v-0.8
	h0.3c0.2,0,0.3,0,0.5,0.1c0.1,0.1,0.2,0.2,0.1,0.3C80.2,91.5,80.1,91.6,80,91.7 M81.1,90.4c-0.4-0.4-0.9-0.6-1.4-0.6
	c-1.1,0-2,0.9-2,2c0,1.1,0.9,2,2,2c1.1,0,2-0.9,2-2C81.7,91.3,81.5,90.8,81.1,90.4 M80.9,90.6c0.3,0.3,0.5,0.7,0.5,1.2
	c0,0.9-0.7,1.7-1.7,1.7c-0.5,0-0.9-0.2-1.2-0.5c-0.3-0.3-0.5-0.8-0.5-1.2c0-0.9,0.8-1.7,1.7-1.7C80.1,90.1,80.6,90.3,80.9,90.6"/>
</svg>
